# This file uses meters as units for non-parametric coordinates.

mtllib Oil_Barrel.mtl
g default
v 25.980764 0.000000 -15.000001
v 15.000002 0.000000 -25.980764
v 0.000002 0.000000 -30.000002
v -14.999998 0.000000 -25.980764
v -25.980761 0.000000 -15.000001
v -29.999998 0.000000 -0.000001
v -25.980761 0.000000 14.999999
v -14.999998 0.000000 25.980761
v 0.000002 0.000000 29.999998
v 15.000002 0.000000 25.980761
v 25.980764 0.000000 14.999999
v 30.000002 0.000000 -0.000001
v 25.980764 20.000000 -15.000001
v 15.000002 20.000000 -25.980764
v 0.000002 20.000000 -30.000002
v -14.999998 20.000000 -25.980764
v -25.980761 20.000000 -15.000001
v -29.999998 20.000000 -0.000001
v -25.980761 20.000000 14.999999
v -14.999998 20.000000 25.980761
v 0.000002 20.000000 29.999998
v 15.000002 20.000000 25.980761
v 25.980764 20.000000 14.999999
v 30.000002 20.000000 -0.000001
v 25.980764 60.000000 -15.000001
v 15.000002 60.000000 -25.980764
v 0.000002 60.000000 -30.000002
v -14.999998 60.000000 -25.980764
v -25.980761 60.000000 -15.000001
v -29.999998 60.000000 -0.000001
v -25.980761 60.000000 14.999999
v -14.999998 60.000000 25.980761
v 0.000002 60.000000 29.999998
v 15.000002 60.000000 25.980761
v 25.980764 60.000000 14.999999
v 30.000002 60.000000 -0.000001
v 25.980764 80.000000 -15.000001
v 15.000002 80.000000 -25.980764
v 0.000002 80.000000 -30.000002
v -14.999998 80.000000 -25.980764
v -25.980761 80.000000 -15.000001
v -29.999998 80.000000 -0.000001
v -25.980761 80.000000 14.999999
v -14.999998 80.000000 25.980761
v 0.000002 80.000000 29.999998
v 15.000002 80.000000 25.980761
v 25.980764 80.000000 14.999999
v 30.000002 80.000000 -0.000001
v 15.093179 20.000000 -26.142147
v 15.093175 60.000000 -26.142149
v 26.142147 60.000000 -15.093178
v 26.142147 20.000000 -15.093177
v 0.000000 20.000000 -30.186350
v 0.000003 60.000000 -30.186350
v -15.093174 20.000000 -26.142147
v -15.093171 60.000000 -26.142149
v -26.142145 20.000000 -15.093174
v -26.142143 60.000000 -15.093177
v -30.186348 20.000000 -0.000002
v -30.186348 60.000000 0.000000
v -26.142143 20.000000 15.093174
v -26.142143 60.000000 15.093176
v -15.093175 20.000000 26.142143
v -15.093177 60.000000 26.142139
v 0.000003 20.000000 30.186346
v 0.000000 60.000000 30.186346
v 15.093181 20.000000 26.142139
v 15.093179 60.000000 26.142143
v 26.142147 20.000000 15.093176
v 26.142147 60.000000 15.093174
v 30.186352 20.000000 0.000000
v 30.186352 60.000000 -0.000002
v 23.022064 0.000000 -13.291796
v 13.291796 0.000000 -23.022064
v 0.000002 0.000000 -26.583591
v -13.291792 0.000000 -23.022066
v -23.022060 0.000000 -13.291796
v -26.583588 0.000000 -0.000001
v -23.022060 0.000000 13.291794
v -13.291792 0.000000 23.022060
v 0.000002 0.000000 26.583588
v 13.291796 0.000000 23.022060
v 23.022064 0.000000 13.291794
v 26.583591 0.000000 -0.000001
v 23.022064 80.000000 -13.291796
v 13.291796 80.000000 -23.022064
v 0.000002 80.000000 -26.583591
v -13.291792 80.000000 -23.022066
v -23.022060 80.000000 -13.291796
v -26.583588 80.000000 -0.000001
v -23.022060 80.000000 13.291794
v -13.291792 80.000000 23.022060
v 0.000002 80.000000 26.583588
v 13.291796 80.000000 23.022060
v 23.022064 80.000000 13.291794
v 26.583591 80.000000 -0.000001
v 23.022064 1.799999 -13.291796
v 13.291796 1.799999 -23.022064
v 0.000002 1.799999 -0.000001
v 0.000002 1.799999 -26.583591
v -13.291792 1.799999 -23.022066
v -23.022060 1.799999 -13.291796
v -26.583588 1.799999 -0.000001
v -23.022060 1.799999 13.291794
v -13.291792 1.799999 23.022060
v 0.000002 1.799999 26.583588
v 13.291796 1.799999 23.022060
v 23.022064 1.799999 13.291794
v 26.583591 1.799999 -0.000001
v 23.022064 78.199997 -13.291796
v 13.291796 78.199997 -23.022064
v 0.000002 78.199997 -0.000001
v 0.000002 78.199997 -26.583591
v -13.291792 78.199997 -23.022066
v -23.022060 78.199997 -13.291795
v -26.583588 78.199997 -0.000001
v -23.022060 78.199997 13.291794
v -13.291792 78.199997 23.022060
v 0.000002 78.199997 26.583588
v 13.291796 78.199997 23.022060
v 23.022064 78.199997 13.291793
v 26.583591 78.199997 -0.000001
vt 0.635316 0.078125
vt 0.578125 0.020934
vt 0.500000 0.000000
vt 0.421875 0.020934
vt 0.364684 0.078125
vt 0.343750 0.156250
vt 0.364684 0.234375
vt 0.421875 0.291566
vt 0.500000 0.312500
vt 0.578125 0.291566
vt 0.635316 0.234375
vt 0.656250 0.156250
vt 0.375000 0.312500
vt 0.395833 0.312500
vt 0.416667 0.312500
vt 0.437500 0.312500
vt 0.458333 0.312500
vt 0.479167 0.312500
vt 0.500000 0.312500
vt 0.520833 0.312500
vt 0.541667 0.312500
vt 0.562500 0.312500
vt 0.583333 0.312500
vt 0.604167 0.312500
vt 0.625000 0.312500
vt 0.375000 0.406485
vt 0.395833 0.406485
vt 0.416667 0.406485
vt 0.437500 0.406485
vt 0.458333 0.406485
vt 0.479167 0.406485
vt 0.500000 0.406485
vt 0.520833 0.406485
vt 0.541667 0.406485
vt 0.562500 0.406485
vt 0.583333 0.406485
vt 0.604167 0.406485
vt 0.625000 0.406485
vt 0.375000 0.594455
vt 0.395833 0.594455
vt 0.416667 0.594455
vt 0.437500 0.594455
vt 0.458333 0.594455
vt 0.479167 0.594455
vt 0.500000 0.594455
vt 0.520833 0.594455
vt 0.541667 0.594455
vt 0.562500 0.594455
vt 0.583333 0.594455
vt 0.604167 0.594455
vt 0.625000 0.594455
vt 0.375000 0.688440
vt 0.395833 0.688440
vt 0.416667 0.688440
vt 0.437500 0.688440
vt 0.458333 0.688440
vt 0.479167 0.688440
vt 0.500000 0.688440
vt 0.520833 0.688440
vt 0.541667 0.688440
vt 0.562500 0.688440
vt 0.583333 0.688440
vt 0.604167 0.688440
vt 0.625000 0.688440
vt 0.635316 0.765625
vt 0.578125 0.708434
vt 0.500000 0.687500
vt 0.421875 0.708434
vt 0.364684 0.765625
vt 0.343750 0.843750
vt 0.364684 0.921875
vt 0.421875 0.979066
vt 0.500000 1.000000
vt 0.578125 0.979066
vt 0.635316 0.921875
vt 0.656250 0.843750
vt 0.500000 0.150000
vt 0.500000 0.837500
vt 0.395833 0.594455
vt 0.375000 0.594455
vt 0.375000 0.406485
vt 0.395833 0.406485
vt 0.416667 0.594455
vt 0.416667 0.406485
vt 0.437500 0.594455
vt 0.437500 0.406485
vt 0.458333 0.594455
vt 0.458333 0.406485
vt 0.479167 0.594455
vt 0.479167 0.406485
vt 0.500000 0.594455
vt 0.500000 0.406485
vt 0.520833 0.594455
vt 0.520833 0.406485
vt 0.541667 0.594455
vt 0.541667 0.406485
vt 0.562500 0.594455
vt 0.562500 0.406485
vt 0.583333 0.594455
vt 0.583333 0.406485
vt 0.604167 0.594455
vt 0.604167 0.406485
vt 0.625000 0.594455
vt 0.625000 0.406485
vt 0.578125 0.020934
vt 0.635316 0.078125
vt 0.500000 0.000000
vt 0.421875 0.020934
vt 0.364684 0.078125
vt 0.343750 0.156250
vt 0.364684 0.234375
vt 0.421875 0.291566
vt 0.500000 0.312500
vt 0.578125 0.291566
vt 0.635316 0.234375
vt 0.656250 0.156250
vt 0.635316 0.921875
vt 0.578125 0.979066
vt 0.500000 1.000000
vt 0.421875 0.979066
vt 0.364684 0.921875
vt 0.343750 0.843750
vt 0.364684 0.765625
vt 0.421875 0.708434
vt 0.500000 0.687500
vt 0.578125 0.708434
vt 0.635316 0.765625
vt 0.656250 0.843750
vt 0.578125 0.020934
vt 0.635316 0.078125
vt 0.500000 0.000000
vt 0.421875 0.020934
vt 0.364684 0.078125
vt 0.343750 0.156250
vt 0.364684 0.234375
vt 0.421875 0.291566
vt 0.500000 0.312500
vt 0.578125 0.291566
vt 0.635316 0.234375
vt 0.656250 0.156250
vt 0.635316 0.921875
vt 0.578125 0.979066
vt 0.500000 1.000000
vt 0.421875 0.979066
vt 0.364684 0.921875
vt 0.343750 0.843750
vt 0.364684 0.765625
vt 0.421875 0.708434
vt 0.500000 0.687500
vt 0.578125 0.708434
vt 0.635316 0.765625
vt 0.656250 0.843750
vn 0.866025 0.000000 -0.500000
vn 0.500000 0.000000 -0.866025
vn 0.499970 -0.010903 -0.865974
vn 0.865974 -0.010903 -0.499970
vn 0.000000 0.000000 -1.000000
vn 0.000000 -0.010903 -0.999941
vn -0.500000 0.000000 -0.866025
vn -0.499970 -0.010903 -0.865974
vn -0.866025 0.000000 -0.500000
vn -0.865974 -0.010903 -0.499970
vn -1.000000 0.000000 0.000000
vn -0.999941 -0.010904 0.000000
vn -0.866025 0.000000 0.500000
vn -0.865974 -0.010904 0.499970
vn -0.500000 0.000000 0.866025
vn -0.499970 -0.010903 0.865974
vn 0.000000 0.000000 1.000000
vn 0.000000 -0.010903 0.999941
vn 0.500000 0.000000 0.866025
vn 0.499970 -0.010903 0.865974
vn 0.866025 0.000000 0.500000
vn 0.865974 -0.010904 0.499970
vn 1.000000 0.000000 0.000000
vn 0.999941 -0.010904 0.000000
vn 0.499996 -0.003870 -0.866019
vn 0.499996 0.003870 -0.866019
vn 0.866019 0.003870 -0.499996
vn 0.866019 -0.003870 -0.499996
vn -0.000000 -0.003870 -0.999993
vn 0.000000 0.003870 -0.999993
vn -0.499996 -0.003870 -0.866019
vn -0.499996 0.003870 -0.866019
vn -0.866019 -0.003870 -0.499996
vn -0.866019 0.003870 -0.499996
vn -0.999993 -0.003870 0.000000
vn -0.999993 0.003870 0.000000
vn -0.866019 -0.003870 0.499996
vn -0.866019 0.003870 0.499996
vn -0.499996 -0.003870 0.866019
vn -0.499996 0.003870 0.866019
vn 0.000000 -0.003870 0.999993
vn 0.000000 0.003870 0.999993
vn 0.499996 -0.003870 0.866019
vn 0.499996 0.003870 0.866019
vn 0.866019 -0.003870 0.499996
vn 0.866019 0.003870 0.499996
vn 0.999993 -0.003870 0.000000
vn 0.999993 0.003870 -0.000000
vn 0.865974 0.010904 -0.499970
vn 0.499970 0.010904 -0.865974
vn 0.500000 0.000000 -0.866025
vn 0.866025 0.000000 -0.500000
vn 0.000000 0.010903 -0.999941
vn 0.000000 0.000000 -1.000000
vn -0.499970 0.010903 -0.865974
vn -0.500000 0.000000 -0.866025
vn -0.865974 0.010903 -0.499970
vn -0.866025 0.000000 -0.500000
vn -0.999941 0.010904 0.000000
vn -1.000000 0.000000 0.000000
vn -0.865974 0.010904 0.499970
vn -0.866025 0.000000 0.500000
vn -0.499970 0.010903 0.865974
vn -0.500000 0.000000 0.866025
vn 0.000000 0.010903 0.999941
vn 0.000000 0.000000 1.000000
vn 0.499970 0.010903 0.865974
vn 0.500000 0.000000 0.866025
vn 0.865974 0.010904 0.499970
vn 0.866025 0.000000 0.500000
vn 0.999941 0.010904 -0.000000
vn 1.000000 0.000000 0.000000
vn 0.000000 -1.000000 -0.000000
vn 0.000000 -1.000000 -0.000000
vn 0.000000 -1.000000 0.000000
vn 0.000000 -1.000000 0.000000
vn 0.000000 -1.000000 -0.000000
vn 0.000000 -1.000000 -0.000000
vn 0.000000 -1.000000 0.000000
vn 0.000000 -1.000000 0.000000
vn 0.000000 -1.000000 0.000000
vn 0.000000 -1.000000 0.000000
vn 0.000000 -1.000000 0.000000
vn 0.000000 -1.000000 0.000000
vn 0.000000 -1.000000 0.000000
vn 0.000000 1.000000 0.000000
vn 0.000000 1.000000 0.000000
vn 0.000000 1.000000 0.000000
vn 0.000000 1.000000 0.000000
vn 0.000000 1.000000 0.000000
vn 0.000000 1.000000 0.000000
vn 0.000000 1.000000 0.000000
vn 0.000000 1.000000 0.000000
vn 0.000000 1.000000 0.000000
vn 0.000000 1.000000 0.000000
vn 0.000000 1.000000 0.000000
vn 0.000000 1.000000 0.000000
vn 0.000000 1.000000 0.000000
vn 0.000000 -1.000000 0.000000
vn 0.000000 -1.000000 0.000000
vn 0.000000 -1.000000 0.000000
vn 0.000000 -1.000000 0.000000
vn 0.000000 -1.000000 0.000000
vn 0.000000 -1.000000 0.000000
vn 0.000000 -1.000000 0.000000
vn 0.000000 -1.000000 0.000000
vn 0.000000 -1.000000 0.000000
vn 0.000000 -1.000000 0.000000
vn 0.000000 -1.000000 0.000000
vn 0.000000 -1.000000 0.000000
vn 0.000000 -1.000000 0.000000
vn 0.000000 -1.000000 0.000000
vn 0.000000 -1.000000 0.000000
vn 0.000000 -1.000000 0.000000
vn 0.000000 -1.000000 0.000000
vn 0.000000 -1.000000 0.000000
vn 0.000000 -1.000000 0.000000
vn 0.000000 -1.000000 0.000000
vn 0.000000 -1.000000 0.000000
vn 0.000000 -1.000000 0.000000
vn 0.000000 -1.000000 0.000000
vn 0.000000 -1.000000 0.000000
vn 0.000000 1.000000 -0.000001
vn 0.000000 1.000000 -0.000000
vn 0.000000 1.000000 -0.000000
vn 0.000000 1.000000 -0.000001
vn 0.000000 1.000000 -0.000000
vn 0.000000 1.000000 -0.000000
vn 0.000000 1.000000 -0.000000
vn 0.000000 1.000000 -0.000000
vn 0.000000 1.000000 0.000000
vn 0.000000 1.000000 0.000000
vn 0.000000 1.000000 0.000000
vn 0.000000 1.000000 0.000000
vn 0.000000 1.000000 0.000001
vn 0.000000 1.000000 0.000001
vn 0.000000 1.000000 0.000000
vn 0.000000 1.000000 0.000000
vn 0.000000 1.000000 -0.000000
vn 0.000000 1.000000 -0.000000
vn 0.000000 1.000000 -0.000000
vn 0.000000 1.000000 -0.000000
vn 0.000000 1.000000 0.000000
vn 0.000000 1.000000 0.000000
vn 0.000000 1.000000 -0.000000
vn 0.000000 1.000000 -0.000000
vn -0.500000 0.000000 0.866025
vn -0.866025 0.000000 0.500000
vn -0.866025 0.000000 0.500000
vn -0.500000 0.000000 0.866025
vn -0.000000 0.000000 1.000000
vn -0.000000 0.000000 1.000000
vn 0.500000 0.000000 0.866025
vn 0.500000 0.000000 0.866025
vn 0.866025 0.000000 0.500000
vn 0.866025 0.000000 0.500000
vn 1.000000 0.000000 0.000000
vn 1.000000 0.000000 0.000000
vn 0.866025 0.000000 -0.500000
vn 0.866025 0.000000 -0.500000
vn 0.500000 0.000000 -0.866025
vn 0.500000 0.000000 -0.866025
vn 0.000000 0.000000 -1.000000
vn 0.000000 0.000000 -1.000000
vn -0.500000 0.000000 -0.866025
vn -0.500000 0.000000 -0.866025
vn -0.866025 0.000000 -0.500000
vn -0.866025 0.000000 -0.500000
vn -1.000000 0.000000 0.000000
vn -1.000000 0.000000 0.000000
vn -0.866025 0.000000 0.500000
vn -0.500000 0.000000 0.866026
vn -0.500000 0.000000 0.866026
vn -0.866025 0.000000 0.500000
vn -0.000000 0.000000 1.000000
vn -0.000000 0.000000 1.000000
vn 0.500000 0.000000 0.866026
vn 0.500000 0.000000 0.866026
vn 0.866025 0.000000 0.500000
vn 0.866025 0.000000 0.500000
vn 1.000000 0.000000 0.000000
vn 1.000000 0.000000 0.000000
vn 0.866025 0.000000 -0.500000
vn 0.866025 0.000000 -0.500000
vn 0.500000 0.000000 -0.866026
vn 0.500000 0.000000 -0.866026
vn 0.000000 0.000000 -1.000000
vn 0.000000 0.000000 -1.000000
vn -0.500000 -0.000000 -0.866026
vn -0.500000 -0.000000 -0.866026
vn -0.866025 -0.000000 -0.500000
vn -0.866025 -0.000000 -0.500000
vn -1.000000 0.000000 0.000000
vn -1.000000 0.000000 0.000000
s 1
g Oil_Barrel
usemtl blinn1SG
f 1/13/1 2/14/2 14/27/3 13/26/4
f 2/14/2 3/15/5 15/28/6 14/27/3
f 3/15/5 4/16/7 16/29/8 15/28/6
f 4/16/7 5/17/9 17/30/10 16/29/8
f 5/17/9 6/18/11 18/31/12 17/30/10
f 6/18/11 7/19/13 19/32/14 18/31/12
f 7/19/13 8/20/15 20/33/16 19/32/14
f 8/20/15 9/21/17 21/34/18 20/33/16
f 9/21/17 10/22/19 22/35/20 21/34/18
f 10/22/19 11/23/21 23/36/22 22/35/20
f 11/23/21 12/24/23 24/37/24 23/36/22
f 12/24/23 1/25/1 13/38/4 24/37/24
usemtl lambert2SG
f 49/82/25 50/79/26 51/80/27 52/81/28
f 53/84/29 54/83/30 50/79/26 49/82/25
f 55/86/31 56/85/32 54/83/30 53/84/29
f 57/88/33 58/87/34 56/85/32 55/86/31
f 59/90/35 60/89/36 58/87/34 57/88/33
f 61/92/37 62/91/38 60/89/36 59/90/35
f 63/94/39 64/93/40 62/91/38 61/92/37
f 65/96/41 66/95/42 64/93/40 63/94/39
f 67/98/43 68/97/44 66/95/42 65/96/41
f 69/100/45 70/99/46 68/97/44 67/98/43
f 71/102/47 72/101/48 70/99/46 69/100/45
f 52/104/28 51/103/27 72/101/48 71/102/47
usemtl blinn1SG
f 25/39/49 26/40/50 38/53/51 37/52/52
f 26/40/50 27/41/53 39/54/54 38/53/51
f 27/41/53 28/42/55 40/55/56 39/54/54
f 28/42/55 29/43/57 41/56/58 40/55/56
f 29/43/57 30/44/59 42/57/60 41/56/58
f 30/44/59 31/45/61 43/58/62 42/57/60
f 31/45/61 32/46/63 44/59/64 43/58/62
f 32/46/63 33/47/65 45/60/66 44/59/64
f 33/47/65 34/48/67 46/61/68 45/60/66
f 34/48/67 35/49/69 47/62/70 46/61/68
f 35/49/69 36/50/71 48/63/72 47/62/70
f 36/50/71 25/51/49 37/64/52 48/63/72
s 3
f 98/129/73 97/130/74 99/77/75
f 100/131/76 98/129/73 99/77/75
f 101/132/77 100/131/76 99/77/75
f 102/133/78 101/132/77 99/77/75
f 103/134/79 102/133/78 99/77/75
f 104/135/80 103/134/79 99/77/75
f 105/136/81 104/135/80 99/77/75
f 106/137/82 105/136/81 99/77/75
f 107/138/83 106/137/82 99/77/75
f 108/139/84 107/138/83 99/77/75
f 109/140/85 108/139/84 99/77/75
f 97/130/74 109/140/85 99/77/75
s 4
f 110/141/86 111/142/87 112/78/88
f 111/142/87 113/143/89 112/78/88
f 113/143/89 114/144/90 112/78/88
f 114/144/90 115/145/91 112/78/88
f 115/145/91 116/146/92 112/78/88
f 116/146/92 117/147/93 112/78/88
f 117/147/93 118/148/94 112/78/88
f 118/148/94 119/149/95 112/78/88
f 119/149/95 120/150/96 112/78/88
f 120/150/96 121/151/97 112/78/88
f 121/151/97 122/152/98 112/78/88
f 122/152/98 110/141/86 112/78/88
s 1
usemtl lambert2SG
f 26/40/50 25/39/49 51/80/27 50/79/26
f 13/26/4 14/27/3 49/82/25 52/81/28
f 27/41/53 26/40/50 50/79/26 54/83/30
f 14/27/3 15/28/6 53/84/29 49/82/25
f 28/42/55 27/41/53 54/83/30 56/85/32
f 15/28/6 16/29/8 55/86/31 53/84/29
f 29/43/57 28/42/55 56/85/32 58/87/34
f 16/29/8 17/30/10 57/88/33 55/86/31
f 30/44/59 29/43/57 58/87/34 60/89/36
f 17/30/10 18/31/12 59/90/35 57/88/33
f 31/45/61 30/44/59 60/89/36 62/91/38
f 18/31/12 19/32/14 61/92/37 59/90/35
f 32/46/63 31/45/61 62/91/38 64/93/40
f 19/32/14 20/33/16 63/94/39 61/92/37
f 33/47/65 32/46/63 64/93/40 66/95/42
f 20/33/16 21/34/18 65/96/41 63/94/39
f 34/48/67 33/47/65 66/95/42 68/97/44
f 21/34/18 22/35/20 67/98/43 65/96/41
f 35/49/69 34/48/67 68/97/44 70/99/46
f 22/35/20 23/36/22 69/100/45 67/98/43
f 36/50/71 35/49/69 70/99/46 72/101/48
f 23/36/22 24/37/24 71/102/47 69/100/45
f 25/51/49 36/50/71 72/101/48 51/103/27
f 24/37/24 13/38/4 52/104/28 71/102/47
s 5
usemtl blinn1SG
f 2/2/99 1/1/100 73/106/101 74/105/102
f 3/3/103 2/2/99 74/105/102 75/107/104
f 4/4/105 3/3/103 75/107/104 76/108/106
f 5/5/107 4/4/105 76/108/106 77/109/108
f 6/6/109 5/5/107 77/109/108 78/110/110
f 7/7/111 6/6/109 78/110/110 79/111/112
f 8/8/113 7/7/111 79/111/112 80/112/114
f 9/9/115 8/8/113 80/112/114 81/113/116
f 10/10/117 9/9/115 81/113/116 82/114/118
f 11/11/119 10/10/117 82/114/118 83/115/120
f 12/12/121 11/11/119 83/115/120 84/116/122
f 1/1/100 12/12/121 84/116/122 73/106/101
s 6
f 37/75/123 38/74/124 86/118/125 85/117/126
f 38/74/124 39/73/127 87/119/128 86/118/125
f 39/73/127 40/72/129 88/120/130 87/119/128
f 40/72/129 41/71/131 89/121/132 88/120/130
f 41/71/131 42/70/133 90/122/134 89/121/132
f 42/70/133 43/69/135 91/123/136 90/122/134
f 43/69/135 44/68/137 92/124/138 91/123/136
f 44/68/137 45/67/139 93/125/140 92/124/138
f 45/67/139 46/66/141 94/126/142 93/125/140
f 46/66/141 47/65/143 95/127/144 94/126/142
f 47/65/143 48/76/145 96/128/146 95/127/144
f 48/76/145 37/75/123 85/117/126 96/128/146
s 7
f 74/105/147 73/106/148 97/130/149 98/129/150
f 75/107/151 74/105/147 98/129/150 100/131/152
f 76/108/153 75/107/151 100/131/152 101/132/154
f 77/109/155 76/108/153 101/132/154 102/133/156
f 78/110/157 77/109/155 102/133/156 103/134/158
f 79/111/159 78/110/157 103/134/158 104/135/160
f 80/112/161 79/111/159 104/135/160 105/136/162
f 81/113/163 80/112/161 105/136/162 106/137/164
f 82/114/165 81/113/163 106/137/164 107/138/166
f 83/115/167 82/114/165 107/138/166 108/139/168
f 84/116/169 83/115/167 108/139/168 109/140/170
f 73/106/148 84/116/169 109/140/170 97/130/149
s 8
f 85/117/171 86/118/172 111/142/173 110/141/174
f 86/118/172 87/119/175 113/143/176 111/142/173
f 87/119/175 88/120/177 114/144/178 113/143/176
f 88/120/177 89/121/179 115/145/180 114/144/178
f 89/121/179 90/122/181 116/146/182 115/145/180
f 90/122/181 91/123/183 117/147/184 116/146/182
f 91/123/183 92/124/185 118/148/186 117/147/184
f 92/124/185 93/125/187 119/149/188 118/148/186
f 93/125/187 94/126/189 120/150/190 119/149/188
f 94/126/189 95/127/191 121/151/192 120/150/190
f 95/127/191 96/128/193 122/152/194 121/151/192
f 96/128/193 85/117/171 110/141/174 122/152/194
